<svg width="263" height="34" viewBox="0 0 263 34" fill="none" xmlns="http://www.w3.org/2000/svg">
<path d="M20.3789 33H0.183594V4.875H7.9375V29.4258H20.3789V33ZM30.2227 33H23.6211V0.0507812H26.1602L30.2227 6.90625V33ZM34.5781 23.3516C34.5781 22.3229 34.6628 21.2552 34.832 20.1484C35.0143 19.0417 35.2682 17.9349 35.5938 16.8281C35.9323 15.7214 36.3359 14.6276 36.8047 13.5469C37.2734 12.4661 37.8008 11.431 38.3867 10.4414H43.2109C42.8854 11.418 42.5924 12.4401 42.332 13.5078C42.0846 14.5625 41.8698 15.6237 41.6875 16.6914C41.5182 17.7461 41.3815 18.7812 41.2773 19.7969C41.1862 20.8125 41.1406 21.7565 41.1406 22.6289C41.1406 23.1367 41.1602 23.6836 41.1992 24.2695C41.2513 24.8424 41.3359 25.4219 41.4531 26.0078C41.5703 26.5807 41.7331 27.1341 41.9414 27.668C42.1628 28.2018 42.4427 28.6771 42.7812 29.0938C43.1198 29.4974 43.5299 29.8229 44.0117 30.0703C44.5065 30.3047 45.0859 30.4219 45.75 30.4219C46.401 30.4219 46.9805 30.2786 47.4883 29.9922C48.0091 29.6927 48.4648 29.3086 48.8555 28.8398C49.2461 28.3581 49.5781 27.8112 49.8516 27.1992C50.125 26.5872 50.3464 25.9622 50.5156 25.3242C50.6979 24.6732 50.8281 24.0417 50.9062 23.4297C50.9974 22.8047 51.043 22.2448 51.043 21.75V10.4414H57.6445V33H55.1055L52.0781 27.7461C51.7005 28.6185 51.2383 29.4128 50.6914 30.1289C50.1576 30.832 49.5456 31.4375 48.8555 31.9453C48.1654 32.4531 47.3971 32.8438 46.5508 33.1172C45.7174 33.3906 44.8125 33.5273 43.8359 33.5273C42.2734 33.5273 40.9128 33.2734 39.7539 32.7656C38.5951 32.2578 37.6315 31.5547 36.8633 30.6562C36.0951 29.7578 35.5221 28.6901 35.1445 27.4531C34.7669 26.2031 34.5781 24.8359 34.5781 23.3516ZM68.582 22.2969C69.3893 22.4792 70.1966 22.6224 71.0039 22.7266C71.8112 22.8307 72.625 22.8828 73.4453 22.8828C74.3047 22.8828 75.099 22.8047 75.8281 22.6484C76.5703 22.4792 77.2083 22.2057 77.7422 21.8281C78.2891 21.4375 78.7188 20.9232 79.0312 20.2852C79.3438 19.6471 79.5 18.8529 79.5 17.9023C79.5 17.1341 79.3958 16.431 79.1875 15.793C78.9792 15.1549 78.6667 14.6081 78.25 14.1523C77.8464 13.6966 77.3451 13.3451 76.7461 13.0977C76.1471 12.8372 75.4505 12.707 74.6562 12.707C73.9141 12.707 73.2435 12.8438 72.6445 13.1172C72.0586 13.3906 71.5378 13.7617 71.082 14.2305C70.6393 14.6862 70.2552 15.2201 69.9297 15.832C69.6172 16.444 69.3568 17.082 69.1484 17.7461C68.9401 18.4102 68.7904 19.0807 68.6992 19.7578C68.6081 20.4349 68.5625 21.0729 68.5625 21.6719C68.5625 21.776 68.5625 21.8802 68.5625 21.9844C68.5625 22.0885 68.569 22.1927 68.582 22.2969ZM84.8516 17.8438C84.8516 18.7682 84.7018 19.5951 84.4023 20.3242C84.1029 21.0404 83.6927 21.6719 83.1719 22.2188C82.6641 22.7656 82.0716 23.2279 81.3945 23.6055C80.7174 23.9831 79.9948 24.2956 79.2266 24.543C78.4583 24.7773 77.6641 24.9466 76.8438 25.0508C76.0365 25.1549 75.2487 25.207 74.4805 25.207C73.5039 25.207 72.5404 25.1419 71.5898 25.0117C70.6393 24.8685 69.7018 24.6471 68.7773 24.3477C68.9206 25.207 69.1484 26.0273 69.4609 26.8086C69.7734 27.5768 70.1901 28.2539 70.7109 28.8398C71.2318 29.4128 71.8698 29.8685 72.625 30.207C73.3932 30.5456 74.2982 30.7148 75.3398 30.7148C76.0299 30.7148 76.6875 30.6107 77.3125 30.4023C77.9375 30.194 78.5104 29.901 79.0312 29.5234C79.5521 29.1458 80.0078 28.6966 80.3984 28.1758C80.8021 27.6549 81.1276 27.0755 81.375 26.4375L84.2266 27.4922C83.7969 28.5208 83.2044 29.4128 82.4492 30.168C81.707 30.9102 80.8607 31.5286 79.9102 32.0234C78.9727 32.5052 77.9701 32.8633 76.9023 33.0977C75.8477 33.332 74.7995 33.4492 73.7578 33.4492C72.0391 33.4492 70.4505 33.1628 68.9922 32.5898C67.5339 32.0039 66.2773 31.1901 65.2227 30.1484C64.168 29.1068 63.3411 27.8633 62.7422 26.418C62.1432 24.9727 61.8438 23.3906 61.8438 21.6719C61.8438 19.9531 62.1432 18.3711 62.7422 16.9258C63.3411 15.4805 64.168 14.237 65.2227 13.1953C66.2773 12.1536 67.5339 11.3464 68.9922 10.7734C70.4505 10.1875 72.0391 9.89453 73.7578 9.89453C74.5911 9.89453 75.444 9.95312 76.3164 10.0703C77.1888 10.1875 78.0352 10.3763 78.8555 10.6367C79.6758 10.8841 80.4505 11.2096 81.1797 11.6133C81.9089 12.0169 82.5404 12.5182 83.0742 13.1172C83.6211 13.7031 84.0508 14.3867 84.3633 15.168C84.6888 15.9492 84.8516 16.8411 84.8516 17.8438ZM92.7977 28.8233C95.4811 24.3652 97.7535 18.4716 99.6146 11.1425C99.7589 10.5221 100.177 10.2408 100.87 10.2985L102.103 10.4067C102.45 10.45 102.709 10.5726 102.882 10.7746C103.07 10.9766 103.12 11.2218 103.034 11.5104C100.682 19.4166 97.9915 25.7358 94.9618 30.468C93.8364 32.1993 92.877 33.0433 92.0835 33L90.8499 32.9134C90.4604 32.8846 90.143 32.6898 89.8977 32.3291C89.6669 31.9684 89.5731 31.4418 89.6164 30.7493C89.9482 25.3679 89.8977 19.1569 89.4649 12.1163C89.3928 11.0343 89.7535 10.4932 90.547 10.4932H91.7805C92.4298 10.4932 92.7832 10.8323 92.8409 11.5104C93.2738 17.9883 93.2593 23.7592 92.7977 28.8233ZM106.495 23.9973C109.496 22.6988 111.538 20.9387 112.62 18.7169C113.168 17.5771 113.442 16.459 113.442 15.3625C113.442 14.266 113.125 13.7178 112.49 13.7178C111.105 13.7178 109.907 14.7998 108.897 16.9639C107.902 19.128 107.101 21.4725 106.495 23.9973ZM105.933 26.9188C105.716 28.1596 105.731 29.0325 105.976 29.5374C106.221 30.028 106.611 30.3381 107.144 30.468C108.241 30.064 109.583 28.9603 111.17 27.1569C111.444 26.8828 111.74 26.8539 112.057 27.0703L112.901 27.5897C113.074 27.6907 113.197 27.8494 113.269 28.0658C113.355 28.2678 113.363 28.4337 113.291 28.5636C112.742 29.6312 111.704 30.771 110.174 31.9829C108.659 33.1803 107.44 33.6853 106.517 33.4977C104.425 32.9928 103.199 31.8963 102.838 30.2083C102.564 28.8665 102.614 27.0703 102.989 24.8197C103.379 22.569 104.093 20.2462 105.132 17.8512C106.647 14.3454 108.4 12.1307 110.391 11.2074C111.963 10.4716 113.399 10.3922 114.697 10.9693C116.01 11.5464 116.667 12.982 116.667 15.2759C116.667 16.6032 116.342 17.9089 115.693 19.193C114.524 21.4869 112.461 23.4995 109.503 25.2308C108.349 25.9089 107.159 26.4716 105.933 26.9188ZM131.122 15.1677C131.122 14.908 131.021 14.7782 130.819 14.7782C130.617 14.7782 130.372 14.9152 130.084 15.1894C129.809 15.4635 129.427 15.9468 128.937 16.6393C128.345 17.5194 127.653 18.5942 126.859 19.8638C126.08 21.119 125.092 22.6772 123.894 24.5383C121.687 27.972 120.323 30.1578 119.804 31.0956C119.285 32.0189 119.003 32.5167 118.96 32.5888C118.917 32.6465 118.873 32.697 118.83 32.7403C118.787 32.7836 118.744 32.8197 118.7 32.8485C118.657 32.8774 118.614 32.9062 118.57 32.9351C118.527 32.9495 118.484 32.9639 118.441 32.9784C118.412 32.9928 118.376 33 118.332 33C117.813 33 117.38 33 117.034 33C116.341 33 116.096 32.6177 116.298 31.853L121.665 11.6402C121.737 11.2362 121.831 10.9477 121.946 10.7746C122.076 10.587 122.278 10.4932 122.552 10.4932H124.37C124.745 10.4932 124.983 10.5798 125.084 10.7529C125.185 10.9261 125.178 11.2651 125.063 11.7701L121.752 22.9369L126.361 15.3192C127.313 13.7178 128.309 12.5131 129.348 11.7051C130.401 10.8972 131.295 10.4932 132.031 10.4932H132.962C134.592 10.4932 135.097 11.7628 134.477 14.3021L129.499 32.3724C129.413 32.7908 129.175 33 128.785 33H126.491C126.13 33 126.015 32.6465 126.145 31.9396L130.798 16.7259C131.014 15.9468 131.122 15.4274 131.122 15.1677ZM144.562 4.99219C144.562 5.48698 144.465 5.95573 144.27 6.39844C144.087 6.84115 143.833 7.22526 143.508 7.55078C143.182 7.8763 142.798 8.13672 142.355 8.33203C141.913 8.51432 141.444 8.60547 140.949 8.60547C140.454 8.60547 139.986 8.51432 139.543 8.33203C139.113 8.13672 138.736 7.8763 138.41 7.55078C138.085 7.22526 137.824 6.84115 137.629 6.39844C137.447 5.95573 137.355 5.48698 137.355 4.99219C137.355 4.4974 137.447 4.03516 137.629 3.60547C137.824 3.16276 138.085 2.77865 138.41 2.45312C138.736 2.1276 139.113 1.8737 139.543 1.69141C139.986 1.49609 140.454 1.39844 140.949 1.39844C141.444 1.39844 141.913 1.49609 142.355 1.69141C142.798 1.8737 143.182 2.1276 143.508 2.45312C143.833 2.77865 144.087 3.16276 144.27 3.60547C144.465 4.03516 144.562 4.4974 144.562 4.99219ZM144.27 33H137.648V10.4609H144.27V33ZM172.551 33H170.012L167.082 28.0977C166.796 28.918 166.398 29.6602 165.891 30.3242C165.396 30.9883 164.816 31.5612 164.152 32.043C163.501 32.5117 162.779 32.8763 161.984 33.1367C161.203 33.3971 160.376 33.5273 159.504 33.5273C157.785 33.5273 156.249 33.2214 154.895 32.6094C153.54 31.9974 152.395 31.1641 151.457 30.1094C150.52 29.0417 149.803 27.7917 149.309 26.3594C148.814 24.9271 148.566 23.3906 148.566 21.75C148.566 20.1094 148.814 18.5729 149.309 17.1406C149.803 15.7083 150.52 14.4648 151.457 13.4102C152.395 12.3555 153.54 11.5221 154.895 10.9102C156.249 10.2982 157.785 9.99219 159.504 9.99219C160.819 9.99219 162.023 10.2461 163.117 10.7539C164.224 11.2617 165.168 12.056 165.949 13.1367V2.14062H172.551V33ZM165.91 21.75C165.91 21.2292 165.871 20.6562 165.793 20.0312C165.715 19.4062 165.591 18.7747 165.422 18.1367C165.253 17.4987 165.031 16.8802 164.758 16.2812C164.484 15.6823 164.146 15.1484 163.742 14.6797C163.352 14.2109 162.889 13.8398 162.355 13.5664C161.835 13.2799 161.236 13.1367 160.559 13.1367C159.816 13.1367 159.172 13.2734 158.625 13.5469C158.078 13.8073 157.609 14.1654 157.219 14.6211C156.828 15.0638 156.503 15.5781 156.242 16.1641C155.995 16.75 155.799 17.362 155.656 18C155.513 18.638 155.409 19.2826 155.344 19.9336C155.292 20.5716 155.266 21.1771 155.266 21.75C155.266 22.3229 155.292 22.9349 155.344 23.5859C155.409 24.224 155.513 24.862 155.656 25.5C155.799 26.138 155.995 26.7565 156.242 27.3555C156.503 27.9414 156.828 28.4622 157.219 28.918C157.609 29.3607 158.078 29.7188 158.625 29.9922C159.172 30.2526 159.816 30.3828 160.559 30.3828C161.301 30.3828 161.952 30.2526 162.512 29.9922C163.072 29.7318 163.547 29.3802 163.938 28.9375C164.341 28.4818 164.667 27.9674 164.914 27.3945C165.174 26.8086 165.376 26.1966 165.52 25.5586C165.663 24.9076 165.76 24.2565 165.812 23.6055C165.878 22.9544 165.91 22.3359 165.91 21.75ZM183.488 22.2969C184.296 22.4792 185.103 22.6224 185.91 22.7266C186.717 22.8307 187.531 22.8828 188.352 22.8828C189.211 22.8828 190.005 22.8047 190.734 22.6484C191.477 22.4792 192.115 22.2057 192.648 21.8281C193.195 21.4375 193.625 20.9232 193.938 20.2852C194.25 19.6471 194.406 18.8529 194.406 17.9023C194.406 17.1341 194.302 16.431 194.094 15.793C193.885 15.1549 193.573 14.6081 193.156 14.1523C192.753 13.6966 192.251 13.3451 191.652 13.0977C191.053 12.8372 190.357 12.707 189.562 12.707C188.82 12.707 188.15 12.8438 187.551 13.1172C186.965 13.3906 186.444 13.7617 185.988 14.2305C185.546 14.6862 185.161 15.2201 184.836 15.832C184.523 16.444 184.263 17.082 184.055 17.7461C183.846 18.4102 183.697 19.0807 183.605 19.7578C183.514 20.4349 183.469 21.0729 183.469 21.6719C183.469 21.776 183.469 21.8802 183.469 21.9844C183.469 22.0885 183.475 22.1927 183.488 22.2969ZM199.758 17.8438C199.758 18.7682 199.608 19.5951 199.309 20.3242C199.009 21.0404 198.599 21.6719 198.078 22.2188C197.57 22.7656 196.978 23.2279 196.301 23.6055C195.624 23.9831 194.901 24.2956 194.133 24.543C193.365 24.7773 192.57 24.9466 191.75 25.0508C190.943 25.1549 190.155 25.207 189.387 25.207C188.41 25.207 187.447 25.1419 186.496 25.0117C185.546 24.8685 184.608 24.6471 183.684 24.3477C183.827 25.207 184.055 26.0273 184.367 26.8086C184.68 27.5768 185.096 28.2539 185.617 28.8398C186.138 29.4128 186.776 29.8685 187.531 30.207C188.299 30.5456 189.204 30.7148 190.246 30.7148C190.936 30.7148 191.594 30.6107 192.219 30.4023C192.844 30.194 193.417 29.901 193.938 29.5234C194.458 29.1458 194.914 28.6966 195.305 28.1758C195.708 27.6549 196.034 27.0755 196.281 26.4375L199.133 27.4922C198.703 28.5208 198.111 29.4128 197.355 30.168C196.613 30.9102 195.767 31.5286 194.816 32.0234C193.879 32.5052 192.876 32.8633 191.809 33.0977C190.754 33.332 189.706 33.4492 188.664 33.4492C186.945 33.4492 185.357 33.1628 183.898 32.5898C182.44 32.0039 181.184 31.1901 180.129 30.1484C179.074 29.1068 178.247 27.8633 177.648 26.418C177.049 24.9727 176.75 23.3906 176.75 21.6719C176.75 19.9531 177.049 18.3711 177.648 16.9258C178.247 15.4805 179.074 14.237 180.129 13.1953C181.184 12.1536 182.44 11.3464 183.898 10.7734C185.357 10.1875 186.945 9.89453 188.664 9.89453C189.497 9.89453 190.35 9.95312 191.223 10.0703C192.095 10.1875 192.941 10.3763 193.762 10.6367C194.582 10.8841 195.357 11.2096 196.086 11.6133C196.815 12.0169 197.447 12.5182 197.98 13.1172C198.527 13.7031 198.957 14.3867 199.27 15.168C199.595 15.9492 199.758 16.8411 199.758 17.8438ZM226.594 33H219.992V30.3047C219.211 31.3724 218.267 32.1667 217.16 32.6875C216.066 33.1953 214.862 33.4492 213.547 33.4492C211.828 33.4492 210.292 33.1432 208.938 32.5312C207.583 31.9193 206.438 31.0859 205.5 30.0312C204.562 28.9635 203.846 27.7135 203.352 26.2812C202.857 24.849 202.609 23.3125 202.609 21.6719C202.609 20.0312 202.857 18.4948 203.352 17.0625C203.846 15.6302 204.562 14.3867 205.5 13.332C206.438 12.2643 207.583 11.4245 208.938 10.8125C210.292 10.2005 211.828 9.89453 213.547 9.89453C214.419 9.89453 215.246 10.0247 216.027 10.2852C216.822 10.5456 217.544 10.9167 218.195 11.3984C218.859 11.8672 219.439 12.4401 219.934 13.1172C220.441 13.7812 220.839 14.5234 221.125 15.3438L224.055 10.4414H226.594V33ZM219.953 21.6719C219.953 21.0859 219.921 20.4674 219.855 19.8164C219.803 19.1654 219.706 18.5208 219.562 17.8828C219.419 17.2448 219.217 16.6393 218.957 16.0664C218.71 15.4805 218.384 14.9661 217.98 14.5234C217.59 14.0677 217.115 13.7096 216.555 13.4492C215.995 13.1888 215.344 13.0586 214.602 13.0586C213.859 13.0586 213.215 13.1953 212.668 13.4688C212.121 13.7292 211.652 14.0872 211.262 14.543C210.871 14.9857 210.546 15.5 210.285 16.0859C210.038 16.6719 209.842 17.2839 209.699 17.9219C209.556 18.5599 209.452 19.2044 209.387 19.8555C209.335 20.4935 209.309 21.099 209.309 21.6719C209.309 22.2448 209.335 22.8568 209.387 23.5078C209.452 24.1589 209.556 24.8034 209.699 25.4414C209.842 26.0794 210.038 26.6914 210.285 27.2773C210.546 27.8633 210.871 28.3841 211.262 28.8398C211.652 29.2826 212.121 29.6406 212.668 29.9141C213.215 30.1745 213.859 30.3047 214.602 30.3047C215.279 30.3047 215.878 30.168 216.398 29.8945C216.932 29.6081 217.395 29.2305 217.785 28.7617C218.189 28.293 218.527 27.7591 218.801 27.1602C219.074 26.5612 219.296 25.9427 219.465 25.3047C219.634 24.6667 219.758 24.0352 219.836 23.4102C219.914 22.7721 219.953 22.1927 219.953 21.6719ZM251.535 25.793C251.535 26.7826 251.392 27.6615 251.105 28.4297C250.819 29.1979 250.428 29.8685 249.934 30.4414C249.439 31.0013 248.853 31.4766 248.176 31.8672C247.499 32.2448 246.77 32.5508 245.988 32.7852C245.22 33.0195 244.413 33.1888 243.566 33.293C242.72 33.3971 241.88 33.4492 241.047 33.4492C239.927 33.4492 238.938 33.3776 238.078 33.2344C237.219 33.0911 236.398 32.8633 235.617 32.5508C234.836 32.2253 234.055 31.8086 233.273 31.3008C232.505 30.793 231.646 30.1745 230.695 29.4453L234.543 26.3008C234.895 26.9648 235.357 27.5703 235.93 28.1172C236.516 28.651 237.121 29.1133 237.746 29.5039C238.371 29.8945 238.977 30.194 239.562 30.4023C240.148 30.6107 240.624 30.7148 240.988 30.7148C241.288 30.7148 241.626 30.7083 242.004 30.6953C242.382 30.6693 242.766 30.6302 243.156 30.5781C243.547 30.513 243.931 30.4219 244.309 30.3047C244.686 30.1875 245.018 30.0312 245.305 29.8359C245.604 29.6276 245.839 29.3737 246.008 29.0742C246.19 28.7617 246.281 28.3906 246.281 27.9609C246.281 27.5182 246.164 27.1341 245.93 26.8086C245.708 26.4701 245.415 26.1771 245.051 25.9297C244.686 25.6823 244.27 25.474 243.801 25.3047C243.332 25.1354 242.857 24.9857 242.375 24.8555C241.906 24.7253 241.451 24.6146 241.008 24.5234C240.565 24.4193 240.181 24.3216 239.855 24.2305C239.257 24.0612 238.625 23.8919 237.961 23.7227C237.297 23.5404 236.639 23.3385 235.988 23.1172C235.337 22.8828 234.712 22.6094 234.113 22.2969C233.527 21.9844 233.007 21.6133 232.551 21.1836C232.108 20.7409 231.75 20.2266 231.477 19.6406C231.216 19.0417 231.086 18.3451 231.086 17.5508C231.086 16.0924 231.372 14.875 231.945 13.8984C232.531 12.9089 233.299 12.1211 234.25 11.5352C235.201 10.9362 236.281 10.513 237.492 10.2656C238.703 10.0182 239.934 9.89453 241.184 9.89453C242.043 9.89453 242.948 9.98568 243.898 10.168C244.849 10.3372 245.773 10.5977 246.672 10.9492C247.57 11.2878 248.41 11.7044 249.191 12.1992C249.973 12.694 250.624 13.2604 251.145 13.8984L247.297 17.0625C247.01 16.2812 246.633 15.6107 246.164 15.0508C245.708 14.4909 245.207 14.0352 244.66 13.6836C244.126 13.319 243.573 13.0521 243 12.8828C242.44 12.7135 241.919 12.6289 241.438 12.6289C240.969 12.6289 240.441 12.6484 239.855 12.6875C239.27 12.7266 238.716 12.8372 238.195 13.0195C237.688 13.2018 237.251 13.4818 236.887 13.8594C236.535 14.224 236.359 14.7318 236.359 15.3828C236.359 15.8516 236.464 16.2552 236.672 16.5938C236.893 16.9193 237.18 17.2057 237.531 17.4531C237.883 17.6875 238.28 17.8893 238.723 18.0586C239.178 18.2148 239.641 18.3581 240.109 18.4883C240.578 18.6055 241.034 18.7096 241.477 18.8008C241.919 18.8919 242.316 18.9896 242.668 19.0938C243.267 19.263 243.898 19.4388 244.562 19.6211C245.24 19.7904 245.904 19.9922 246.555 20.2266C247.206 20.4479 247.831 20.7148 248.43 21.0273C249.042 21.3268 249.576 21.6979 250.031 22.1406C250.487 22.5833 250.852 23.1042 251.125 23.7031C251.398 24.2891 251.535 24.9857 251.535 25.793ZM262.121 30.0703C262.121 30.5651 262.03 31.0339 261.848 31.4766C261.665 31.9062 261.411 32.2839 261.086 32.6094C260.76 32.9219 260.383 33.1693 259.953 33.3516C259.523 33.5469 259.061 33.6445 258.566 33.6445C258.072 33.6445 257.609 33.5469 257.18 33.3516C256.75 33.1693 256.372 32.9219 256.047 32.6094C255.721 32.2839 255.467 31.9062 255.285 31.4766C255.103 31.0339 255.012 30.5651 255.012 30.0703C255.012 29.5885 255.103 29.1328 255.285 28.7031C255.467 28.2604 255.721 27.8828 256.047 27.5703C256.372 27.2448 256.75 26.9909 257.18 26.8086C257.609 26.6133 258.072 26.5156 258.566 26.5156C259.061 26.5156 259.523 26.6133 259.953 26.8086C260.383 26.9909 260.76 27.2448 261.086 27.5703C261.411 27.8828 261.665 28.2604 261.848 28.7031C262.03 29.1328 262.121 29.5885 262.121 30.0703Z" fill="white"/>
</svg>
