<svg width="40" height="45" viewBox="0 0 55 62" fill="none" xmlns="http://www.w3.org/2000/svg">
<g clip-path="url(#clip0_234_20)">
<path d="M0 61.1707L0.0477804 -6.10352e-05L17.6389 0.0226613L17.6388 53.3457L42.9261 53.0709V61.2643L0 61.1707Z" fill="white"/>
<path d="M26.1123 51.4224L26.1592 24.7609L34.9022 24.7382L34.9548 51.4466L26.1123 51.4224Z" fill="white"/>
<path d="M54.254 57C54.254 59.2596 52.2839 61.0914 49.8536 61.0914C47.4233 61.0914 45.4531 59.2596 45.4531 57C45.4531 54.7404 50.0664 48.9124 50.0664 48.9124C50.4743 48.9768 54.254 54.7404 54.254 57Z" fill="white"/>
<path d="M52.9489 56.6157C52.8935 58.2549 51.9878 59.4179 50.0107 59.0716" stroke="#FCFCFC" stroke-width="0.211877" stroke-linecap="round"/>
<path d="M30.3901 21.3403C32.6658 21.3403 34.5106 19.4955 34.5106 17.2198C34.5106 14.9441 32.6658 13.0992 30.3901 13.0992C28.1144 13.0992 26.2695 14.9441 26.2695 17.2198C26.2695 19.4955 28.1144 21.3403 30.3901 21.3403Z" fill="white"/>
</g>
<defs>
<clipPath id="clip0_234_20">
<rect width="54.2536" height="61.2643" fill="white"/>
</clipPath>
</defs>
</svg>
